<?xml version="1.0" encoding="UTF-8" standalone="no"?><!DOCTYPE svg PUBLIC "-//W3C//DTD SVG 1.1//EN" "http://www.w3.org/Graphics/SVG/1.1/DTD/svg11.dtd"><svg width="100%" height="100%" viewBox="0 0 800 800" version="1.1" xmlns="http://www.w3.org/2000/svg" xmlns:xlink="http://www.w3.org/1999/xlink" xml:space="preserve" xmlns:serif="http://www.serif.com/" style="fill-rule:evenodd;clip-rule:evenodd;stroke-linejoin:round;stroke-miterlimit:2;"><g><path d="M709.744,511.746c-15.579,-61.593 -50.043,-117.266 -97.988,-158.993c22.908,-20.383 38.301,-52.285 38.301,-102.682c0,-20.438 -2.482,-40.306 -7.13,-59.333c39.596,-12.45 67.51,-49.189 67.51,-92.376c0,-53.435 -43.474,-96.908 -96.91,-96.908c-30.783,-0 -59.484,14.776 -77.558,38.846c-39.163,-25.478 -85.859,-40.3 -135.958,-40.3c-50.104,0 -96.804,14.822 -135.971,40.297c-18.085,-24.07 -46.791,-38.846 -77.567,-38.846c-53.437,0 -96.91,43.474 -96.91,96.908c0,43.187 27.914,79.927 67.51,92.376c-4.648,19.027 -7.13,38.894 -7.13,59.333c0,50.396 15.395,82.298 38.305,102.681c-47.945,41.731 -82.411,97.404 -97.991,158.996c-10.221,40.402 5.923,82.686 40.177,105.221c11.079,7.285 22.075,10.977 32.687,10.977l36.878,0c5.544,9.018 12.148,17.38 19.72,24.952c0.165,0.165 0.332,0.325 0.502,0.481l123.169,123.169c15.125,15.125 35.235,23.455 56.623,23.455c21.389,0 41.499,-8.332 56.622,-23.457l123.15,-123.164c0.175,-0.162 0.349,-0.327 0.517,-0.497c7.575,-7.593 14.174,-15.95 19.702,-24.938l36.882,0c10.611,0 21.609,-3.692 32.691,-10.981c34.246,-22.534 50.391,-64.816 40.17,-105.218Zm-96.217,-475.917c34.48,0 62.531,28.051 62.531,62.53c0,27.881 -18.018,51.597 -43.573,59.616c-14.979,-37.683 -38.86,-70.894 -69.039,-97.017c11.66,-15.565 30.193,-25.129 50.081,-25.129Zm-446.011,122.146c-25.555,-8.017 -43.575,-31.733 -43.575,-59.616c0,-34.48 28.051,-62.53 62.531,-62.53c19.883,0 38.42,9.564 50.09,25.129c-30.181,26.123 -54.066,59.334 -69.046,97.017Zm232.495,-123.597c118.919,-0 215.668,96.759 215.668,215.69c0,58.499 -21.509,87.621 -77.111,99.49c1.934,-7.18 2.982,-14.719 2.982,-22.501c0,-9.494 -7.696,-17.189 -17.189,-17.189c-9.494,0 -17.189,7.696 -17.189,17.189c0,28.799 -23.429,52.23 -52.23,52.23c-13.024,0 -25.265,-4.753 -34.757,-13.265l11.649,-27.207c4.593,-10.728 3.5,-22.95 -2.927,-32.691c-6.427,-9.741 -17.229,-15.556 -28.899,-15.556c-11.67,0 -22.473,5.815 -28.899,15.556c-6.425,9.741 -7.52,21.961 -2.927,32.691l11.649,27.207c-9.492,8.51 -21.733,13.265 -34.757,13.265c-28.799,0 -52.23,-23.429 -52.23,-52.23c0,-9.494 -7.696,-17.189 -17.189,-17.189c-9.494,0 -17.189,7.696 -17.189,17.189c0,7.782 1.049,15.321 2.982,22.501c-55.613,-11.869 -77.127,-40.991 -77.127,-99.489c0,-118.933 96.759,-215.692 215.69,-215.692Zm156.401,593.767c-0.155,0.143 -0.308,0.291 -0.457,0.44l-123.633,123.648c-8.631,8.631 -20.106,13.385 -32.313,13.387c-12.206,0 -23.682,-4.753 -32.313,-13.385l-123.652,-123.652c-0.153,-0.153 -0.309,-0.303 -0.468,-0.45c-0.062,-0.062 -0.12,-0.129 -0.182,-0.191l24.808,0c16.548,0 31.969,-5.291 44.601,-14.226l34.355,0c9.494,0 17.189,-7.696 17.189,-17.189c0,-9.494 -7.696,-17.189 -17.189,-17.189l-7.204,0c1.265,-3.204 2.3,-6.518 3.113,-9.911l12.466,0c9.494,0 17.189,-7.696 17.189,-17.189c0,-9.494 -7.696,-17.189 -17.189,-17.189l-12.376,0c-0.78,-3.381 -1.805,-6.688 -3.039,-9.911l7.041,0c9.494,0 17.189,-7.696 17.189,-17.189c0,-9.494 -7.696,-17.189 -17.189,-17.189l-33.602,0c-12.772,-9.231 -28.072,-14.226 -44.163,-14.226l-16.012,0c17.796,-13.956 39.587,-21.549 62.559,-21.549c27.161,0 52.692,10.578 71.891,29.787c3.223,3.225 7.618,5.038 12.179,5.038c4.56,0 8.933,-1.812 12.158,-5.038c19.199,-19.207 44.73,-29.787 71.891,-29.787c22.972,0 44.763,7.594 62.559,21.549l-16.012,0c-16.101,0 -31.41,5.002 -44.17,14.226l-33.597,0c-9.494,0 -17.189,7.696 -17.189,17.189c0,9.494 7.696,17.189 17.189,17.189l7.042,0c-1.236,3.223 -2.26,6.529 -3.041,9.911l-12.376,0c-9.494,0 -17.189,7.696 -17.189,17.189c0,9.494 7.696,17.189 17.189,17.189l12.464,0c0.813,3.393 1.848,6.706 3.113,9.911l-7.204,0c-9.494,0 -17.189,7.696 -17.189,17.189c0,9.494 7.696,17.189 17.189,17.189l34.355,0c12.632,8.935 28.053,14.226 44.601,14.226l24.806,0c-0.062,0.067 -0.124,0.138 -0.189,0.203Zm94.268,-39.905c-5.298,3.483 -10.068,5.324 -13.798,5.324l-105.084,0c-22.962,0 -42.033,-18.133 -42.511,-40.416c-0.241,-11.385 4.055,-22.075 12.131,-30.136c7.776,-7.804 18.143,-12.101 29.191,-12.101l84.151,0c9.494,0 17.189,-7.696 17.189,-17.189c0,-9.494 -7.696,-17.189 -17.189,-17.189l-20.77,0c-4.148,-5.679 -8.71,-11.077 -13.702,-16.069c-0.175,-0.175 -0.354,-0.346 -0.535,-0.511c-25.635,-25.378 -59.589,-39.348 -95.69,-39.348c-30.881,0 -60.185,10.217 -84.059,29.055c-23.874,-18.838 -53.18,-29.055 -84.059,-29.055c-36.103,0 -70.054,13.966 -95.688,39.345c-0.182,0.168 -0.361,0.339 -0.538,0.514c-4.983,4.983 -9.549,10.381 -13.709,16.069l-20.761,0c-9.494,0 -17.189,7.696 -17.189,17.189c0,9.494 7.696,17.189 17.189,17.189l84.151,0c11.048,0 21.415,4.297 29.222,12.132c8.043,8.029 12.339,18.721 12.098,30.099c-0.48,22.288 -19.549,40.421 -42.511,40.421l-105.089,0c-3.73,0 -8.502,-1.841 -13.794,-5.322c-22.028,-14.492 -32.373,-41.846 -25.739,-68.068c14.702,-58.128 48.321,-110.344 95.124,-148.117c20.251,9.018 42.844,13.353 64.694,15.73c15.718,15.959 37.554,25.875 61.67,25.875c20.383,0 39.613,-6.993 54.934,-19.627c15.323,12.632 34.552,19.627 54.935,19.627c24.117,0 45.952,-9.917 61.67,-25.875c21.844,-2.377 44.435,-6.711 64.682,-15.728c46.801,37.774 80.419,89.988 95.121,148.116c6.633,26.226 -3.709,53.579 -25.736,68.068Z" style="fill:#ff007c;fill-rule:nonzero;"/><path d="M268.749,277.082c3.357,3.357 7.756,5.035 12.155,5.035c4.399,0 8.799,-1.678 12.155,-5.035l20.545,-20.545c6.712,-6.712 6.712,-17.597 0,-24.311c-6.712,-6.714 -17.597,-6.712 -24.311,0l-8.39,8.39l-8.39,-8.39c-6.712,-6.712 -17.597,-6.712 -24.311,0c-6.714,6.712 -6.712,17.597 0,24.311l20.548,20.545Z" style="fill:#ff007c;fill-rule:nonzero;"/><path d="M506.942,277.082c3.357,3.357 7.756,5.035 12.155,5.035c4.399,0 8.799,-1.678 12.155,-5.035l20.545,-20.545c6.712,-6.712 6.712,-17.597 0,-24.311c-6.712,-6.714 -17.597,-6.712 -24.311,0l-8.39,8.39l-8.39,-8.39c-6.712,-6.712 -17.597,-6.712 -24.311,0c-6.714,6.712 -6.712,17.597 0,24.311l20.548,20.545Z" style="fill:#ff007c;fill-rule:nonzero;"/></g></svg>